<?xml version="1.0" encoding="UTF-8"?>
<svg width="22px" height="21px" viewBox="0 0 22 21" version="1.1" xmlns="http://www.w3.org/2000/svg" xmlns:xlink="http://www.w3.org/1999/xlink">
    <!-- Generator: Sketch 54.1 (76490) - https://sketchapp.com -->
    <title>Group</title>
    <desc>Created with Sketch.</desc>
    <g id="Page-1" stroke="none" stroke-width="1" fill="none" fill-rule="evenodd">
        <g id="Blabot-Homepage" transform="translate(-883.000000, -63.000000)" fill="#DB4F4F">
            <g id="Refresh" transform="translate(868.000000, 48.000000)">
                <g id="Group" transform="translate(15.000033, 15.012196)">
                    <path d="M21.3296048,1.80495652 C20.8990106,1.71281159 20.4751917,1.9870942 20.3830468,2.41744928 L19.8038729,5.12073913 C17.9593801,1.97434058 14.57417,-3.55271368e-15 10.8639019,-3.55271368e-15 C5.15027868,-3.55271368e-15 0.501583026,4.64837681 0.501583026,10.3623188 C0.501583026,10.802558 0.858445344,11.1594203 1.29868447,11.1594203 C1.73892361,11.1594203 2.09578592,10.802558 2.09578592,10.3623188 C2.09578592,5.52742029 6.02932216,1.5942029 10.8639019,1.5942029 C14.0158801,1.5942029 16.8910251,3.27776087 18.4476048,5.95865217 L15.7900685,5.38912319 C15.3597135,5.29697826 14.9359743,5.57126087 14.8438294,6.00161594 C14.7516048,6.4318913 15.0256482,6.85571014 15.4562424,6.94817391 L20.0178149,7.9255 C20.0952932,7.94231884 20.1741265,7.94702174 20.2516048,7.94048551 C20.3808946,7.92956522 20.5069961,7.88723913 20.6177932,7.81534058 C20.7956265,7.70039855 20.9201338,7.51985507 20.9643729,7.31308696 L21.9420178,2.75151449 C22.0342424,2.32123913 21.7598801,1.89742029 21.3296048,1.80495652 Z" id="Fill-1"></path>
                    <path d="M20.5274816,9.31763768 C20.0875613,9.33198551 19.7425758,9.70064493 19.7568439,10.1406449 C19.8344019,12.4811739 18.995612,14.7121014 17.3948729,16.4218043 C15.7943729,18.131587 13.6238656,19.116087 11.2830178,19.1933261 C11.1855323,19.1964348 11.0883656,19.1979493 10.9912787,19.1979493 C7.93702505,19.1979493 5.12349607,17.611558 3.53463375,15.0415435 L6.30519897,15.784442 C6.73021346,15.8984275 7.1673439,15.6462246 7.2813294,15.2212101 C7.39555404,14.7958768 7.1430323,14.3587464 6.71801781,14.2447609 L2.21192361,13.0363551 C2.00770621,12.9818333 1.79001781,13.0104493 1.60692361,13.1160652 C1.4238294,13.2216014 1.29031491,13.3956087 1.23547433,13.5999058 L0.0273873735,18.106 C-0.0865981338,18.5313333 0.165604765,18.9682246 0.590938098,19.0824493 C0.660046794,19.1008623 0.72947433,19.1098696 0.797706214,19.1098696 C1.14954679,19.1098696 1.47181491,18.8751232 1.56706853,18.5188986 L2.24619897,15.9861884 C4.13524969,18.9610507 7.42361201,20.7921522 10.9909598,20.7921522 C11.1055033,20.7921522 11.2207642,20.7903188 11.3356265,20.7865725 C14.1021265,20.6950652 16.667199,19.5320942 18.5587207,17.5112826 C20.4503222,15.4905507 21.4416772,12.8542174 21.3504888,10.0876377 C21.3358222,9.64803623 20.9671627,9.30177536 20.5274816,9.31763768 Z" id="Fill-3"></path>
                </g>
            </g>
        </g>
    </g>
</svg>